<?xml version="1.0" encoding="UTF-8" standalone="no"?>
<!DOCTYPE svg PUBLIC "-//W3C//DTD SVG 1.1//EN"
 "http://www.w3.org/Graphics/SVG/1.1/DTD/svg11.dtd">
<!-- Generated by graphviz version 5.0.0 (20220707.1540)
 -->
<!-- Title: dependencies Pages: 1 -->
<svg width="386pt" height="174pt"
 viewBox="0.00 0.00 386.00 173.80" xmlns="http://www.w3.org/2000/svg" xmlns:xlink="http://www.w3.org/1999/xlink">
<g id="graph0" class="graph" transform="scale(1 1) rotate(0) translate(4 169.8)">
<title>dependencies</title>
<polygon fill="white" stroke="transparent" points="-4,4 -4,-169.8 382,-169.8 382,4 -4,4"/>
<text text-anchor="middle" x="189" y="-8.2" font-family="sans-serif" font-size="14.00">dependencies</text>
<g id="clust1" class="cluster">
<title>cluster_CrudTablesPageModule</title>
<polygon fill="none" stroke="black" stroke-dasharray="1,5" points="8,-32.8 8,-157.8 370,-157.8 370,-32.8 8,-32.8"/>
</g>
<g id="clust4" class="cluster">
<title>cluster_CrudTablesPageModule_imports</title>
<polygon fill="none" stroke="black" points="148,-40.8 148,-92.8 362,-92.8 362,-40.8 148,-40.8"/>
</g>
<g id="clust2" class="cluster">
<title>cluster_CrudTablesPageModule_declarations</title>
<polygon fill="none" stroke="black" points="16,-40.8 16,-92.8 140,-92.8 140,-40.8 16,-40.8"/>
</g>
<!-- CrudTablesPage -->
<g id="node1" class="node">
<title>CrudTablesPage</title>
<polygon fill="#ffffb3" stroke="black" points="132.03,-84.8 23.97,-84.8 23.97,-48.8 132.03,-48.8 132.03,-84.8"/>
<text text-anchor="middle" x="78" y="-62.6" font-family="Times,serif" font-size="14.00">CrudTablesPage</text>
</g>
<!-- CrudTablesPageModule -->
<g id="node2" class="node">
<title>CrudTablesPageModule</title>
<polygon fill="#8dd3c7" stroke="black" points="249.08,-149.8 246.08,-153.8 225.08,-153.8 222.08,-149.8 96.92,-149.8 96.92,-113.8 249.08,-113.8 249.08,-149.8"/>
<text text-anchor="middle" x="173" y="-127.6" font-family="Times,serif" font-size="14.00">CrudTablesPageModule</text>
</g>
<!-- CrudTablesPage&#45;&gt;CrudTablesPageModule -->
<g id="edge1" class="edge">
<title>CrudTablesPage&#45;&gt;CrudTablesPageModule</title>
<path fill="none" stroke="black" d="M114.61,-84.91C114.61,-84.91 114.61,-103.79 114.61,-103.79"/>
<polygon fill="black" stroke="black" points="111.11,-103.79 114.61,-113.79 118.11,-103.79 111.11,-103.79"/>
</g>
<!-- CrudTablesPageRoutingModule -->
<g id="node3" class="node">
<title>CrudTablesPageRoutingModule</title>
<polygon fill="#8dd3c7" stroke="black" points="353.7,-84.8 350.7,-88.8 329.7,-88.8 326.7,-84.8 156.3,-84.8 156.3,-48.8 353.7,-48.8 353.7,-84.8"/>
<text text-anchor="middle" x="255" y="-62.6" font-family="Times,serif" font-size="14.00">CrudTablesPageRoutingModule</text>
</g>
<!-- CrudTablesPageRoutingModule&#45;&gt;CrudTablesPageModule -->
<g id="edge2" class="edge">
<title>CrudTablesPageRoutingModule&#45;&gt;CrudTablesPageModule</title>
<path fill="none" stroke="black" d="M202.72,-84.91C202.72,-84.91 202.72,-103.79 202.72,-103.79"/>
<polygon fill="black" stroke="black" points="199.22,-103.79 202.72,-113.79 206.22,-103.79 199.22,-103.79"/>
</g>
</g>
</svg>
