<?xml version="1.0" encoding="UTF-8" standalone="no"?>
<!DOCTYPE svg PUBLIC "-//W3C//DTD SVG 1.1//EN"
 "http://www.w3.org/Graphics/SVG/1.1/DTD/svg11.dtd">
<!-- Generated by graphviz version 5.0.0 (20220707.1540)
 -->
<!-- Title: dependencies Pages: 1 -->
<svg width="296pt" height="174pt"
 viewBox="0.00 0.00 296.00 173.80" xmlns="http://www.w3.org/2000/svg" xmlns:xlink="http://www.w3.org/1999/xlink">
<g id="graph0" class="graph" transform="scale(1 1) rotate(0) translate(4 169.8)">
<title>dependencies</title>
<polygon fill="white" stroke="transparent" points="-4,4 -4,-169.8 292,-169.8 292,4 -4,4"/>
<text text-anchor="middle" x="144" y="-8.2" font-family="sans-serif" font-size="14.00">dependencies</text>
<g id="clust1" class="cluster">
<title>cluster_PayPageModule</title>
<polygon fill="none" stroke="black" stroke-dasharray="1,5" points="8,-32.8 8,-157.8 280,-157.8 280,-32.8 8,-32.8"/>
</g>
<g id="clust2" class="cluster">
<title>cluster_PayPageModule_declarations</title>
<polygon fill="none" stroke="black" points="192,-40.8 192,-92.8 272,-92.8 272,-40.8 192,-40.8"/>
</g>
<g id="clust4" class="cluster">
<title>cluster_PayPageModule_imports</title>
<polygon fill="none" stroke="black" points="16,-40.8 16,-92.8 184,-92.8 184,-40.8 16,-40.8"/>
</g>
<!-- PayPage -->
<g id="node1" class="node">
<title>PayPage</title>
<polygon fill="#ffffb3" stroke="black" points="264.21,-84.8 199.79,-84.8 199.79,-48.8 264.21,-48.8 264.21,-84.8"/>
<text text-anchor="middle" x="232" y="-62.6" font-family="Times,serif" font-size="14.00">PayPage</text>
</g>
<!-- PayPageModule -->
<g id="node2" class="node">
<title>PayPageModule</title>
<polygon fill="#8dd3c7" stroke="black" points="212.77,-149.8 209.77,-153.8 188.77,-153.8 185.77,-149.8 105.23,-149.8 105.23,-113.8 212.77,-113.8 212.77,-149.8"/>
<text text-anchor="middle" x="159" y="-127.6" font-family="Times,serif" font-size="14.00">PayPageModule</text>
</g>
<!-- PayPage&#45;&gt;PayPageModule -->
<g id="edge1" class="edge">
<title>PayPage&#45;&gt;PayPageModule</title>
<path fill="none" stroke="black" d="M206.39,-84.91C206.39,-84.91 206.39,-103.79 206.39,-103.79"/>
<polygon fill="black" stroke="black" points="202.89,-103.79 206.39,-113.79 209.89,-103.79 202.89,-103.79"/>
</g>
<!-- PayPageRoutingModule -->
<g id="node3" class="node">
<title>PayPageRoutingModule</title>
<polygon fill="#8dd3c7" stroke="black" points="176.38,-84.8 173.38,-88.8 152.38,-88.8 149.38,-84.8 23.62,-84.8 23.62,-48.8 176.38,-48.8 176.38,-84.8"/>
<text text-anchor="middle" x="100" y="-62.6" font-family="Times,serif" font-size="14.00">PayPageRoutingModule</text>
</g>
<!-- PayPageRoutingModule&#45;&gt;PayPageModule -->
<g id="edge2" class="edge">
<title>PayPageRoutingModule&#45;&gt;PayPageModule</title>
<path fill="none" stroke="black" d="M140.78,-84.91C140.78,-84.91 140.78,-103.79 140.78,-103.79"/>
<polygon fill="black" stroke="black" points="137.28,-103.79 140.78,-113.79 144.28,-103.79 137.28,-103.79"/>
</g>
</g>
</svg>
