<?xml version="1.0" encoding="UTF-8" standalone="no"?>
<!DOCTYPE svg PUBLIC "-//W3C//DTD SVG 1.1//EN"
 "http://www.w3.org/Graphics/SVG/1.1/DTD/svg11.dtd">
<!-- Generated by graphviz version 5.0.0 (20220707.1540)
 -->
<!-- Title: dependencies Pages: 1 -->
<svg width="398pt" height="174pt"
 viewBox="0.00 0.00 398.00 173.80" xmlns="http://www.w3.org/2000/svg" xmlns:xlink="http://www.w3.org/1999/xlink">
<g id="graph0" class="graph" transform="scale(1 1) rotate(0) translate(4 169.8)">
<title>dependencies</title>
<polygon fill="white" stroke="transparent" points="-4,4 -4,-169.8 394,-169.8 394,4 -4,4"/>
<text text-anchor="middle" x="195" y="-8.2" font-family="sans-serif" font-size="14.00">dependencies</text>
<g id="clust1" class="cluster">
<title>cluster_TableDetailsPageModule</title>
<polygon fill="none" stroke="black" stroke-dasharray="1,5" points="8,-32.8 8,-157.8 382,-157.8 382,-32.8 8,-32.8"/>
</g>
<g id="clust4" class="cluster">
<title>cluster_TableDetailsPageModule_imports</title>
<polygon fill="none" stroke="black" points="154,-40.8 154,-92.8 374,-92.8 374,-40.8 154,-40.8"/>
</g>
<g id="clust2" class="cluster">
<title>cluster_TableDetailsPageModule_declarations</title>
<polygon fill="none" stroke="black" points="16,-40.8 16,-92.8 146,-92.8 146,-40.8 16,-40.8"/>
</g>
<!-- TableDetailsPage -->
<g id="node1" class="node">
<title>TableDetailsPage</title>
<polygon fill="#ffffb3" stroke="black" points="138.24,-84.8 23.76,-84.8 23.76,-48.8 138.24,-48.8 138.24,-84.8"/>
<text text-anchor="middle" x="81" y="-62.6" font-family="Times,serif" font-size="14.00">TableDetailsPage</text>
</g>
<!-- TableDetailsPageModule -->
<g id="node2" class="node">
<title>TableDetailsPageModule</title>
<polygon fill="#8dd3c7" stroke="black" points="258.29,-149.8 255.29,-153.8 234.29,-153.8 231.29,-149.8 99.71,-149.8 99.71,-113.8 258.29,-113.8 258.29,-149.8"/>
<text text-anchor="middle" x="179" y="-127.6" font-family="Times,serif" font-size="14.00">TableDetailsPageModule</text>
</g>
<!-- TableDetailsPage&#45;&gt;TableDetailsPageModule -->
<g id="edge1" class="edge">
<title>TableDetailsPage&#45;&gt;TableDetailsPageModule</title>
<path fill="none" stroke="black" d="M119.11,-84.91C119.11,-84.91 119.11,-103.79 119.11,-103.79"/>
<polygon fill="black" stroke="black" points="115.61,-103.79 119.11,-113.79 122.61,-103.79 115.61,-103.79"/>
</g>
<!-- TableDetailsPageRoutingModule -->
<g id="node3" class="node">
<title>TableDetailsPageRoutingModule</title>
<polygon fill="#8dd3c7" stroke="black" points="365.91,-84.8 362.91,-88.8 341.91,-88.8 338.91,-84.8 162.09,-84.8 162.09,-48.8 365.91,-48.8 365.91,-84.8"/>
<text text-anchor="middle" x="264" y="-62.6" font-family="Times,serif" font-size="14.00">TableDetailsPageRoutingModule</text>
</g>
<!-- TableDetailsPageRoutingModule&#45;&gt;TableDetailsPageModule -->
<g id="edge2" class="edge">
<title>TableDetailsPageRoutingModule&#45;&gt;TableDetailsPageModule</title>
<path fill="none" stroke="black" d="M210.22,-84.91C210.22,-84.91 210.22,-103.79 210.22,-103.79"/>
<polygon fill="black" stroke="black" points="206.72,-103.79 210.22,-113.79 213.72,-103.79 206.72,-103.79"/>
</g>
</g>
</svg>
