<?xml version="1.0" encoding="UTF-8" standalone="no"?>
<!DOCTYPE svg PUBLIC "-//W3C//DTD SVG 1.1//EN"
 "http://www.w3.org/Graphics/SVG/1.1/DTD/svg11.dtd">
<!-- Generated by graphviz version 5.0.0 (20220707.1540)
 -->
<!-- Title: dependencies Pages: 1 -->
<svg width="408pt" height="174pt"
 viewBox="0.00 0.00 408.00 173.80" xmlns="http://www.w3.org/2000/svg" xmlns:xlink="http://www.w3.org/1999/xlink">
<g id="graph0" class="graph" transform="scale(1 1) rotate(0) translate(4 169.8)">
<title>dependencies</title>
<polygon fill="white" stroke="transparent" points="-4,4 -4,-169.8 404,-169.8 404,4 -4,4"/>
<text text-anchor="middle" x="200" y="-8.2" font-family="sans-serif" font-size="14.00">dependencies</text>
<g id="clust1" class="cluster">
<title>cluster_CrudProductsPageModule</title>
<polygon fill="none" stroke="black" stroke-dasharray="1,5" points="8,-32.8 8,-157.8 392,-157.8 392,-32.8 8,-32.8"/>
</g>
<g id="clust4" class="cluster">
<title>cluster_CrudProductsPageModule_imports</title>
<polygon fill="none" stroke="black" points="160,-40.8 160,-92.8 384,-92.8 384,-40.8 160,-40.8"/>
</g>
<g id="clust2" class="cluster">
<title>cluster_CrudProductsPageModule_declarations</title>
<polygon fill="none" stroke="black" points="16,-40.8 16,-92.8 152,-92.8 152,-40.8 16,-40.8"/>
</g>
<!-- CrudProductsPage -->
<g id="node1" class="node">
<title>CrudProductsPage</title>
<polygon fill="#ffffb3" stroke="black" points="144.21,-84.8 23.79,-84.8 23.79,-48.8 144.21,-48.8 144.21,-84.8"/>
<text text-anchor="middle" x="84" y="-62.6" font-family="Times,serif" font-size="14.00">CrudProductsPage</text>
</g>
<!-- CrudProductsPageModule -->
<g id="node2" class="node">
<title>CrudProductsPageModule</title>
<polygon fill="#8dd3c7" stroke="black" points="266.77,-149.8 263.77,-153.8 242.77,-153.8 239.77,-149.8 103.23,-149.8 103.23,-113.8 266.77,-113.8 266.77,-149.8"/>
<text text-anchor="middle" x="185" y="-127.6" font-family="Times,serif" font-size="14.00">CrudProductsPageModule</text>
</g>
<!-- CrudProductsPage&#45;&gt;CrudProductsPageModule -->
<g id="edge1" class="edge">
<title>CrudProductsPage&#45;&gt;CrudProductsPageModule</title>
<path fill="none" stroke="black" d="M123.61,-84.91C123.61,-84.91 123.61,-103.79 123.61,-103.79"/>
<polygon fill="black" stroke="black" points="120.11,-103.79 123.61,-113.79 127.11,-103.79 120.11,-103.79"/>
</g>
<!-- CrudProductsPageRoutingModule -->
<g id="node3" class="node">
<title>CrudProductsPageRoutingModule</title>
<polygon fill="#8dd3c7" stroke="black" points="376.38,-84.8 373.38,-88.8 352.38,-88.8 349.38,-84.8 167.62,-84.8 167.62,-48.8 376.38,-48.8 376.38,-84.8"/>
<text text-anchor="middle" x="272" y="-62.6" font-family="Times,serif" font-size="14.00">CrudProductsPageRoutingModule</text>
</g>
<!-- CrudProductsPageRoutingModule&#45;&gt;CrudProductsPageModule -->
<g id="edge2" class="edge">
<title>CrudProductsPageRoutingModule&#45;&gt;CrudProductsPageModule</title>
<path fill="none" stroke="black" d="M217.22,-84.91C217.22,-84.91 217.22,-103.79 217.22,-103.79"/>
<polygon fill="black" stroke="black" points="213.72,-103.79 217.22,-113.79 220.72,-103.79 213.72,-103.79"/>
</g>
</g>
</svg>
