<?xml version="1.0" encoding="UTF-8" standalone="no"?>
<!DOCTYPE svg PUBLIC "-//W3C//DTD SVG 1.1//EN"
 "http://www.w3.org/Graphics/SVG/1.1/DTD/svg11.dtd">
<!-- Generated by graphviz version 5.0.0 (20220707.1540)
 -->
<!-- Title: dependencies Pages: 1 -->
<svg width="3102pt" height="250pt"
 viewBox="0.00 0.00 3102.00 249.80" xmlns="http://www.w3.org/2000/svg" xmlns:xlink="http://www.w3.org/1999/xlink">
<g id="graph0" class="graph" transform="scale(1 1) rotate(0) translate(4 245.8)">
<title>dependencies</title>
<polygon fill="white" stroke="transparent" points="-4,4 -4,-245.8 3098,-245.8 3098,4 -4,4"/>
<text text-anchor="middle" x="1547" y="-8.2" font-family="sans-serif" font-size="14.00">dependencies</text>
<g id="clust1" class="cluster">
<title>cluster_ApplicationpipesModule</title>
<polygon fill="none" stroke="black" stroke-dasharray="1,5" points="8,-32.8 8,-233.8 180,-233.8 180,-32.8 8,-32.8"/>
</g>
<g id="clust2" class="cluster">
<title>cluster_ApplicationpipesModule_declarations</title>
<polygon fill="none" stroke="black" points="42,-40.8 42,-92.8 146,-92.8 146,-40.8 42,-40.8"/>
</g>
<g id="clust5" class="cluster">
<title>cluster_ApplicationpipesModule_exports</title>
<polygon fill="none" stroke="black" points="40,-173.8 40,-225.8 148,-225.8 148,-173.8 40,-173.8"/>
</g>
<g id="clust8" class="cluster">
<title>cluster_AppModule</title>
<polygon fill="none" stroke="black" stroke-dasharray="1,5" points="188,-32.8 188,-233.8 478,-233.8 478,-32.8 188,-32.8"/>
</g>
<g id="clust9" class="cluster">
<title>cluster_AppModule_declarations</title>
<polygon fill="none" stroke="black" points="348,-40.8 348,-92.8 470,-92.8 470,-40.8 348,-40.8"/>
</g>
<g id="clust11" class="cluster">
<title>cluster_AppModule_imports</title>
<polygon fill="none" stroke="black" points="196,-40.8 196,-92.8 340,-92.8 340,-40.8 196,-40.8"/>
</g>
<g id="clust13" class="cluster">
<title>cluster_AppModule_bootstrap</title>
<polygon fill="none" stroke="black" points="276,-173.8 276,-225.8 400,-225.8 400,-173.8 276,-173.8"/>
</g>
<g id="clust21" class="cluster">
<title>cluster_CrudProductsPageModule</title>
<polygon fill="none" stroke="black" stroke-dasharray="1,5" points="486,-32.8 486,-160.8 870,-160.8 870,-32.8 486,-32.8"/>
</g>
<g id="clust22" class="cluster">
<title>cluster_CrudProductsPageModule_declarations</title>
<polygon fill="none" stroke="black" points="726,-40.8 726,-92.8 862,-92.8 862,-40.8 726,-40.8"/>
</g>
<g id="clust24" class="cluster">
<title>cluster_CrudProductsPageModule_imports</title>
<polygon fill="none" stroke="black" points="494,-40.8 494,-92.8 718,-92.8 718,-40.8 494,-40.8"/>
</g>
<g id="clust34" class="cluster">
<title>cluster_CrudTablesPageModule</title>
<polygon fill="none" stroke="black" stroke-dasharray="1,5" points="878,-32.8 878,-160.8 1240,-160.8 1240,-32.8 878,-32.8"/>
</g>
<g id="clust35" class="cluster">
<title>cluster_CrudTablesPageModule_declarations</title>
<polygon fill="none" stroke="black" points="1108,-40.8 1108,-92.8 1232,-92.8 1232,-40.8 1108,-40.8"/>
</g>
<g id="clust37" class="cluster">
<title>cluster_CrudTablesPageModule_imports</title>
<polygon fill="none" stroke="black" points="886,-40.8 886,-92.8 1100,-92.8 1100,-40.8 886,-40.8"/>
</g>
<g id="clust47" class="cluster">
<title>cluster_ExploreContainerComponentModule</title>
<polygon fill="none" stroke="black" stroke-dasharray="1,5" points="1248,-32.8 1248,-233.8 1488,-233.8 1488,-32.8 1248,-32.8"/>
</g>
<g id="clust48" class="cluster">
<title>cluster_ExploreContainerComponentModule_declarations</title>
<polygon fill="none" stroke="black" points="1270,-40.8 1270,-92.8 1466,-92.8 1466,-40.8 1270,-40.8"/>
</g>
<g id="clust51" class="cluster">
<title>cluster_ExploreContainerComponentModule_exports</title>
<polygon fill="none" stroke="black" points="1268,-173.8 1268,-225.8 1468,-225.8 1468,-173.8 1268,-173.8"/>
</g>
<g id="clust54" class="cluster">
<title>cluster_KitchenPageModule</title>
<polygon fill="none" stroke="black" stroke-dasharray="1,5" points="1496,-32.8 1496,-160.8 1816,-160.8 1816,-32.8 1496,-32.8"/>
</g>
<g id="clust55" class="cluster">
<title>cluster_KitchenPageModule_declarations</title>
<polygon fill="none" stroke="black" points="1704,-40.8 1704,-92.8 1808,-92.8 1808,-40.8 1704,-40.8"/>
</g>
<g id="clust57" class="cluster">
<title>cluster_KitchenPageModule_imports</title>
<polygon fill="none" stroke="black" points="1504,-40.8 1504,-92.8 1696,-92.8 1696,-40.8 1504,-40.8"/>
</g>
<g id="clust67" class="cluster">
<title>cluster_PayPageModule</title>
<polygon fill="none" stroke="black" stroke-dasharray="1,5" points="1824,-32.8 1824,-160.8 2096,-160.8 2096,-32.8 1824,-32.8"/>
</g>
<g id="clust68" class="cluster">
<title>cluster_PayPageModule_declarations</title>
<polygon fill="none" stroke="black" points="2008,-40.8 2008,-92.8 2088,-92.8 2088,-40.8 2008,-40.8"/>
</g>
<g id="clust70" class="cluster">
<title>cluster_PayPageModule_imports</title>
<polygon fill="none" stroke="black" points="1832,-40.8 1832,-92.8 2000,-92.8 2000,-40.8 1832,-40.8"/>
</g>
<g id="clust80" class="cluster">
<title>cluster_TableDetailsPageModule</title>
<polygon fill="none" stroke="black" stroke-dasharray="1,5" points="2104,-32.8 2104,-160.8 2478,-160.8 2478,-32.8 2104,-32.8"/>
</g>
<g id="clust81" class="cluster">
<title>cluster_TableDetailsPageModule_declarations</title>
<polygon fill="none" stroke="black" points="2340,-40.8 2340,-92.8 2470,-92.8 2470,-40.8 2340,-40.8"/>
</g>
<g id="clust83" class="cluster">
<title>cluster_TableDetailsPageModule_imports</title>
<polygon fill="none" stroke="black" points="2112,-40.8 2112,-92.8 2332,-92.8 2332,-40.8 2112,-40.8"/>
</g>
<g id="clust93" class="cluster">
<title>cluster_TablesPageModule</title>
<polygon fill="none" stroke="black" stroke-dasharray="1,5" points="2486,-100.8 2486,-225.8 2792,-225.8 2792,-100.8 2486,-100.8"/>
</g>
<g id="clust94" class="cluster">
<title>cluster_TablesPageModule_declarations</title>
<polygon fill="none" stroke="black" points="2688,-108.8 2688,-160.8 2784,-160.8 2784,-108.8 2688,-108.8"/>
</g>
<g id="clust96" class="cluster">
<title>cluster_TablesPageModule_imports</title>
<polygon fill="none" stroke="black" points="2494,-108.8 2494,-160.8 2680,-160.8 2680,-108.8 2494,-108.8"/>
</g>
<g id="clust106" class="cluster">
<title>cluster_TabsPageModule</title>
<polygon fill="none" stroke="black" stroke-dasharray="1,5" points="2800,-32.8 2800,-160.8 3086,-160.8 3086,-32.8 2800,-32.8"/>
</g>
<g id="clust107" class="cluster">
<title>cluster_TabsPageModule_declarations</title>
<polygon fill="none" stroke="black" points="2992,-40.8 2992,-92.8 3078,-92.8 3078,-40.8 2992,-40.8"/>
</g>
<g id="clust109" class="cluster">
<title>cluster_TabsPageModule_imports</title>
<polygon fill="none" stroke="black" points="2808,-40.8 2808,-92.8 2984,-92.8 2984,-40.8 2808,-40.8"/>
</g>
<!-- OrderbyPipe -->
<g id="node1" class="node">
<title>OrderbyPipe</title>
<polygon fill="#ffffb3" stroke="black" points="137.54,-84.8 50.46,-84.8 50.46,-48.8 137.54,-48.8 137.54,-84.8"/>
<text text-anchor="middle" x="94" y="-62.6" font-family="Times,serif" font-size="14.00">OrderbyPipe</text>
</g>
<!-- ApplicationpipesModule -->
<g id="node2" class="node">
<title>ApplicationpipesModule</title>
<polygon fill="#8dd3c7" stroke="black" points="171.7,-152.8 168.7,-156.8 147.7,-156.8 144.7,-152.8 16.3,-152.8 16.3,-116.8 171.7,-116.8 171.7,-152.8"/>
<text text-anchor="middle" x="94" y="-130.6" font-family="Times,serif" font-size="14.00">ApplicationpipesModule</text>
</g>
<!-- OrderbyPipe&#45;&gt;ApplicationpipesModule -->
<g id="edge1" class="edge">
<title>OrderbyPipe&#45;&gt;ApplicationpipesModule</title>
<path fill="none" stroke="black" d="M94,-85.02C94,-85.02 94,-106.53 94,-106.53"/>
<polygon fill="black" stroke="black" points="90.5,-106.53 94,-116.53 97.5,-106.53 90.5,-106.53"/>
</g>
<!-- OrderbyPipe  -->
<g id="node3" class="node">
<title>OrderbyPipe </title>
<polygon fill="#fb8072" stroke="black" points="139.54,-217.8 48.46,-217.8 48.46,-181.8 139.54,-181.8 139.54,-217.8"/>
<text text-anchor="middle" x="94" y="-195.6" font-family="Times,serif" font-size="14.00">OrderbyPipe </text>
</g>
<!-- ApplicationpipesModule&#45;&gt;OrderbyPipe  -->
<g id="edge2" class="edge">
<title>ApplicationpipesModule&#45;&gt;OrderbyPipe </title>
<path fill="none" stroke="black" stroke-dasharray="5,2" d="M94,-152.91C94,-152.91 94,-171.79 94,-171.79"/>
<polygon fill="black" stroke="black" points="90.5,-171.79 94,-181.79 97.5,-171.79 90.5,-171.79"/>
</g>
<!-- AppComponent -->
<g id="node4" class="node">
<title>AppComponent</title>
<polygon fill="#ffffb3" stroke="black" points="461.94,-84.8 356.06,-84.8 356.06,-48.8 461.94,-48.8 461.94,-84.8"/>
<text text-anchor="middle" x="409" y="-62.6" font-family="Times,serif" font-size="14.00">AppComponent</text>
</g>
<!-- AppModule -->
<g id="node5" class="node">
<title>AppModule</title>
<polygon fill="#8dd3c7" stroke="black" points="379.66,-152.8 376.66,-156.8 355.66,-156.8 352.66,-152.8 296.34,-152.8 296.34,-116.8 379.66,-116.8 379.66,-152.8"/>
<text text-anchor="middle" x="338" y="-130.6" font-family="Times,serif" font-size="14.00">AppModule</text>
</g>
<!-- AppComponent&#45;&gt;AppModule -->
<g id="edge3" class="edge">
<title>AppComponent&#45;&gt;AppModule</title>
<path fill="none" stroke="black" d="M368.06,-85.02C368.06,-85.02 368.06,-106.53 368.06,-106.53"/>
<polygon fill="black" stroke="black" points="364.56,-106.53 368.06,-116.53 371.56,-106.53 364.56,-106.53"/>
</g>
<!-- AppComponent  -->
<g id="node7" class="node">
<title>AppComponent </title>
<polygon fill="#80b1d3" stroke="black" points="392.44,-217.8 283.56,-217.8 283.56,-181.8 392.44,-181.8 392.44,-217.8"/>
<text text-anchor="middle" x="338" y="-195.6" font-family="Times,serif" font-size="14.00">AppComponent </text>
</g>
<!-- AppModule&#45;&gt;AppComponent  -->
<g id="edge5" class="edge">
<title>AppModule&#45;&gt;AppComponent </title>
<path fill="none" stroke="black" stroke-dasharray="1,5" d="M338,-152.91C338,-152.91 338,-171.79 338,-171.79"/>
<polygon fill="black" stroke="black" points="334.5,-171.79 338,-181.79 341.5,-171.79 334.5,-171.79"/>
</g>
<!-- AppRoutingModule -->
<g id="node6" class="node">
<title>AppRoutingModule</title>
<polygon fill="#8dd3c7" stroke="black" points="332.28,-84.8 329.28,-88.8 308.28,-88.8 305.28,-84.8 203.72,-84.8 203.72,-48.8 332.28,-48.8 332.28,-84.8"/>
<text text-anchor="middle" x="268" y="-62.6" font-family="Times,serif" font-size="14.00">AppRoutingModule</text>
</g>
<!-- AppRoutingModule&#45;&gt;AppModule -->
<g id="edge4" class="edge">
<title>AppRoutingModule&#45;&gt;AppModule</title>
<path fill="none" stroke="black" d="M314.28,-85.02C314.28,-85.02 314.28,-106.53 314.28,-106.53"/>
<polygon fill="black" stroke="black" points="310.78,-106.53 314.28,-116.53 317.78,-106.53 310.78,-106.53"/>
</g>
<!-- CrudProductsPage -->
<g id="node8" class="node">
<title>CrudProductsPage</title>
<polygon fill="#ffffb3" stroke="black" points="854.21,-84.8 733.79,-84.8 733.79,-48.8 854.21,-48.8 854.21,-84.8"/>
<text text-anchor="middle" x="794" y="-62.6" font-family="Times,serif" font-size="14.00">CrudProductsPage</text>
</g>
<!-- CrudProductsPageModule -->
<g id="node9" class="node">
<title>CrudProductsPageModule</title>
<polygon fill="#8dd3c7" stroke="black" points="774.77,-152.8 771.77,-156.8 750.77,-156.8 747.77,-152.8 611.23,-152.8 611.23,-116.8 774.77,-116.8 774.77,-152.8"/>
<text text-anchor="middle" x="693" y="-130.6" font-family="Times,serif" font-size="14.00">CrudProductsPageModule</text>
</g>
<!-- CrudProductsPage&#45;&gt;CrudProductsPageModule -->
<g id="edge6" class="edge">
<title>CrudProductsPage&#45;&gt;CrudProductsPageModule</title>
<path fill="none" stroke="black" d="M754.39,-85.02C754.39,-85.02 754.39,-106.53 754.39,-106.53"/>
<polygon fill="black" stroke="black" points="750.89,-106.53 754.39,-116.53 757.89,-106.53 750.89,-106.53"/>
</g>
<!-- CrudProductsPageRoutingModule -->
<g id="node10" class="node">
<title>CrudProductsPageRoutingModule</title>
<polygon fill="#8dd3c7" stroke="black" points="710.38,-84.8 707.38,-88.8 686.38,-88.8 683.38,-84.8 501.62,-84.8 501.62,-48.8 710.38,-48.8 710.38,-84.8"/>
<text text-anchor="middle" x="606" y="-62.6" font-family="Times,serif" font-size="14.00">CrudProductsPageRoutingModule</text>
</g>
<!-- CrudProductsPageRoutingModule&#45;&gt;CrudProductsPageModule -->
<g id="edge7" class="edge">
<title>CrudProductsPageRoutingModule&#45;&gt;CrudProductsPageModule</title>
<path fill="none" stroke="black" d="M660.78,-85.02C660.78,-85.02 660.78,-106.53 660.78,-106.53"/>
<polygon fill="black" stroke="black" points="657.28,-106.53 660.78,-116.53 664.28,-106.53 657.28,-106.53"/>
</g>
<!-- CrudTablesPage -->
<g id="node11" class="node">
<title>CrudTablesPage</title>
<polygon fill="#ffffb3" stroke="black" points="1224.03,-84.8 1115.97,-84.8 1115.97,-48.8 1224.03,-48.8 1224.03,-84.8"/>
<text text-anchor="middle" x="1170" y="-62.6" font-family="Times,serif" font-size="14.00">CrudTablesPage</text>
</g>
<!-- CrudTablesPageModule -->
<g id="node12" class="node">
<title>CrudTablesPageModule</title>
<polygon fill="#8dd3c7" stroke="black" points="1150.08,-152.8 1147.08,-156.8 1126.08,-156.8 1123.08,-152.8 997.92,-152.8 997.92,-116.8 1150.08,-116.8 1150.08,-152.8"/>
<text text-anchor="middle" x="1074" y="-130.6" font-family="Times,serif" font-size="14.00">CrudTablesPageModule</text>
</g>
<!-- CrudTablesPage&#45;&gt;CrudTablesPageModule -->
<g id="edge8" class="edge">
<title>CrudTablesPage&#45;&gt;CrudTablesPageModule</title>
<path fill="none" stroke="black" d="M1132.89,-85.02C1132.89,-85.02 1132.89,-106.53 1132.89,-106.53"/>
<polygon fill="black" stroke="black" points="1129.39,-106.53 1132.89,-116.53 1136.39,-106.53 1129.39,-106.53"/>
</g>
<!-- CrudTablesPageRoutingModule -->
<g id="node13" class="node">
<title>CrudTablesPageRoutingModule</title>
<polygon fill="#8dd3c7" stroke="black" points="1091.7,-84.8 1088.7,-88.8 1067.7,-88.8 1064.7,-84.8 894.3,-84.8 894.3,-48.8 1091.7,-48.8 1091.7,-84.8"/>
<text text-anchor="middle" x="993" y="-62.6" font-family="Times,serif" font-size="14.00">CrudTablesPageRoutingModule</text>
</g>
<!-- CrudTablesPageRoutingModule&#45;&gt;CrudTablesPageModule -->
<g id="edge9" class="edge">
<title>CrudTablesPageRoutingModule&#45;&gt;CrudTablesPageModule</title>
<path fill="none" stroke="black" d="M1044.78,-85.02C1044.78,-85.02 1044.78,-106.53 1044.78,-106.53"/>
<polygon fill="black" stroke="black" points="1041.28,-106.53 1044.78,-116.53 1048.28,-106.53 1041.28,-106.53"/>
</g>
<!-- ExploreContainerComponent -->
<g id="node14" class="node">
<title>ExploreContainerComponent</title>
<polygon fill="#ffffb3" stroke="black" points="1458.36,-84.8 1277.64,-84.8 1277.64,-48.8 1458.36,-48.8 1458.36,-84.8"/>
<text text-anchor="middle" x="1368" y="-62.6" font-family="Times,serif" font-size="14.00">ExploreContainerComponent</text>
</g>
<!-- ExploreContainerComponentModule -->
<g id="node15" class="node">
<title>ExploreContainerComponentModule</title>
<polygon fill="#8dd3c7" stroke="black" points="1480.41,-152.8 1477.41,-156.8 1456.41,-156.8 1453.41,-152.8 1255.59,-152.8 1255.59,-116.8 1480.41,-116.8 1480.41,-152.8"/>
<text text-anchor="middle" x="1368" y="-130.6" font-family="Times,serif" font-size="14.00">ExploreContainerComponentModule</text>
</g>
<!-- ExploreContainerComponent&#45;&gt;ExploreContainerComponentModule -->
<g id="edge10" class="edge">
<title>ExploreContainerComponent&#45;&gt;ExploreContainerComponentModule</title>
<path fill="none" stroke="black" d="M1368,-85.02C1368,-85.02 1368,-106.53 1368,-106.53"/>
<polygon fill="black" stroke="black" points="1364.5,-106.53 1368,-116.53 1371.5,-106.53 1364.5,-106.53"/>
</g>
<!-- ExploreContainerComponent  -->
<g id="node16" class="node">
<title>ExploreContainerComponent </title>
<polygon fill="#fb8072" stroke="black" points="1460.36,-217.8 1275.64,-217.8 1275.64,-181.8 1460.36,-181.8 1460.36,-217.8"/>
<text text-anchor="middle" x="1368" y="-195.6" font-family="Times,serif" font-size="14.00">ExploreContainerComponent </text>
</g>
<!-- ExploreContainerComponentModule&#45;&gt;ExploreContainerComponent  -->
<g id="edge11" class="edge">
<title>ExploreContainerComponentModule&#45;&gt;ExploreContainerComponent </title>
<path fill="none" stroke="black" stroke-dasharray="5,2" d="M1368,-152.91C1368,-152.91 1368,-171.79 1368,-171.79"/>
<polygon fill="black" stroke="black" points="1364.5,-171.79 1368,-181.79 1371.5,-171.79 1364.5,-171.79"/>
</g>
<!-- KitchenPage -->
<g id="node17" class="node">
<title>KitchenPage</title>
<polygon fill="#ffffb3" stroke="black" points="1799.53,-84.8 1712.47,-84.8 1712.47,-48.8 1799.53,-48.8 1799.53,-84.8"/>
<text text-anchor="middle" x="1756" y="-62.6" font-family="Times,serif" font-size="14.00">KitchenPage</text>
</g>
<!-- KitchenPageModule -->
<g id="node18" class="node">
<title>KitchenPageModule</title>
<polygon fill="#8dd3c7" stroke="black" points="1736.58,-152.8 1733.58,-156.8 1712.58,-156.8 1709.58,-152.8 1605.42,-152.8 1605.42,-116.8 1736.58,-116.8 1736.58,-152.8"/>
<text text-anchor="middle" x="1671" y="-130.6" font-family="Times,serif" font-size="14.00">KitchenPageModule</text>
</g>
<!-- KitchenPage&#45;&gt;KitchenPageModule -->
<g id="edge12" class="edge">
<title>KitchenPage&#45;&gt;KitchenPageModule</title>
<path fill="none" stroke="black" d="M1724.39,-85.02C1724.39,-85.02 1724.39,-106.53 1724.39,-106.53"/>
<polygon fill="black" stroke="black" points="1720.89,-106.53 1724.39,-116.53 1727.89,-106.53 1720.89,-106.53"/>
</g>
<!-- KitchenPageRoutingModule -->
<g id="node19" class="node">
<title>KitchenPageRoutingModule</title>
<polygon fill="#8dd3c7" stroke="black" points="1688.2,-84.8 1685.2,-88.8 1664.2,-88.8 1661.2,-84.8 1511.8,-84.8 1511.8,-48.8 1688.2,-48.8 1688.2,-84.8"/>
<text text-anchor="middle" x="1600" y="-62.6" font-family="Times,serif" font-size="14.00">KitchenPageRoutingModule</text>
</g>
<!-- KitchenPageRoutingModule&#45;&gt;KitchenPageModule -->
<g id="edge13" class="edge">
<title>KitchenPageRoutingModule&#45;&gt;KitchenPageModule</title>
<path fill="none" stroke="black" d="M1646.78,-85.02C1646.78,-85.02 1646.78,-106.53 1646.78,-106.53"/>
<polygon fill="black" stroke="black" points="1643.28,-106.53 1646.78,-116.53 1650.28,-106.53 1643.28,-106.53"/>
</g>
<!-- PayPage -->
<g id="node20" class="node">
<title>PayPage</title>
<polygon fill="#ffffb3" stroke="black" points="2080.21,-84.8 2015.79,-84.8 2015.79,-48.8 2080.21,-48.8 2080.21,-84.8"/>
<text text-anchor="middle" x="2048" y="-62.6" font-family="Times,serif" font-size="14.00">PayPage</text>
</g>
<!-- PayPageModule -->
<g id="node21" class="node">
<title>PayPageModule</title>
<polygon fill="#8dd3c7" stroke="black" points="2028.77,-152.8 2025.77,-156.8 2004.77,-156.8 2001.77,-152.8 1921.23,-152.8 1921.23,-116.8 2028.77,-116.8 2028.77,-152.8"/>
<text text-anchor="middle" x="1975" y="-130.6" font-family="Times,serif" font-size="14.00">PayPageModule</text>
</g>
<!-- PayPage&#45;&gt;PayPageModule -->
<g id="edge14" class="edge">
<title>PayPage&#45;&gt;PayPageModule</title>
<path fill="none" stroke="black" d="M2022.39,-85.02C2022.39,-85.02 2022.39,-106.53 2022.39,-106.53"/>
<polygon fill="black" stroke="black" points="2018.89,-106.53 2022.39,-116.53 2025.89,-106.53 2018.89,-106.53"/>
</g>
<!-- PayPageRoutingModule -->
<g id="node22" class="node">
<title>PayPageRoutingModule</title>
<polygon fill="#8dd3c7" stroke="black" points="1992.38,-84.8 1989.38,-88.8 1968.38,-88.8 1965.38,-84.8 1839.62,-84.8 1839.62,-48.8 1992.38,-48.8 1992.38,-84.8"/>
<text text-anchor="middle" x="1916" y="-62.6" font-family="Times,serif" font-size="14.00">PayPageRoutingModule</text>
</g>
<!-- PayPageRoutingModule&#45;&gt;PayPageModule -->
<g id="edge15" class="edge">
<title>PayPageRoutingModule&#45;&gt;PayPageModule</title>
<path fill="none" stroke="black" d="M1956.78,-85.02C1956.78,-85.02 1956.78,-106.53 1956.78,-106.53"/>
<polygon fill="black" stroke="black" points="1953.28,-106.53 1956.78,-116.53 1960.28,-106.53 1953.28,-106.53"/>
</g>
<!-- TableDetailsPage -->
<g id="node23" class="node">
<title>TableDetailsPage</title>
<polygon fill="#ffffb3" stroke="black" points="2462.24,-84.8 2347.76,-84.8 2347.76,-48.8 2462.24,-48.8 2462.24,-84.8"/>
<text text-anchor="middle" x="2405" y="-62.6" font-family="Times,serif" font-size="14.00">TableDetailsPage</text>
</g>
<!-- TableDetailsPageModule -->
<g id="node24" class="node">
<title>TableDetailsPageModule</title>
<polygon fill="#8dd3c7" stroke="black" points="2470.29,-152.8 2467.29,-156.8 2446.29,-156.8 2443.29,-152.8 2311.71,-152.8 2311.71,-116.8 2470.29,-116.8 2470.29,-152.8"/>
<text text-anchor="middle" x="2391" y="-130.6" font-family="Times,serif" font-size="14.00">TableDetailsPageModule</text>
</g>
<!-- TableDetailsPage&#45;&gt;TableDetailsPageModule -->
<g id="edge16" class="edge">
<title>TableDetailsPage&#45;&gt;TableDetailsPageModule</title>
<path fill="none" stroke="black" d="M2405,-85.02C2405,-85.02 2405,-106.53 2405,-106.53"/>
<polygon fill="black" stroke="black" points="2401.5,-106.53 2405,-116.53 2408.5,-106.53 2401.5,-106.53"/>
</g>
<!-- TablesPageModule -->
<g id="node27" class="node">
<title>TablesPageModule</title>
<polygon fill="#8dd3c7" stroke="black" points="2649.08,-217.8 2646.08,-221.8 2625.08,-221.8 2622.08,-217.8 2524.92,-217.8 2524.92,-181.8 2649.08,-181.8 2649.08,-217.8"/>
<text text-anchor="middle" x="2587" y="-195.6" font-family="Times,serif" font-size="14.00">TablesPageModule</text>
</g>
<!-- TableDetailsPageModule&#45;&gt;TablesPageModule -->
<g id="edge19" class="edge">
<title>TableDetailsPageModule&#45;&gt;TablesPageModule</title>
<path fill="none" stroke="black" d="M2391,-152.91C2391,-172.14 2391,-199.8 2391,-199.8 2391,-199.8 2514.72,-199.8 2514.72,-199.8"/>
<polygon fill="black" stroke="black" points="2514.72,-203.3 2524.72,-199.8 2514.72,-196.3 2514.72,-203.3"/>
</g>
<!-- TableDetailsPageRoutingModule -->
<g id="node25" class="node">
<title>TableDetailsPageRoutingModule</title>
<polygon fill="#8dd3c7" stroke="black" points="2323.91,-84.8 2320.91,-88.8 2299.91,-88.8 2296.91,-84.8 2120.09,-84.8 2120.09,-48.8 2323.91,-48.8 2323.91,-84.8"/>
<text text-anchor="middle" x="2222" y="-62.6" font-family="Times,serif" font-size="14.00">TableDetailsPageRoutingModule</text>
</g>
<!-- TableDetailsPageRoutingModule&#45;&gt;TableDetailsPageModule -->
<g id="edge17" class="edge">
<title>TableDetailsPageRoutingModule&#45;&gt;TableDetailsPageModule</title>
<path fill="none" stroke="black" d="M2317.78,-85.02C2317.78,-85.02 2317.78,-106.53 2317.78,-106.53"/>
<polygon fill="black" stroke="black" points="2314.28,-106.53 2317.78,-116.53 2321.28,-106.53 2314.28,-106.53"/>
</g>
<!-- TablesPage -->
<g id="node26" class="node">
<title>TablesPage</title>
<polygon fill="#ffffb3" stroke="black" points="2776.03,-152.8 2695.97,-152.8 2695.97,-116.8 2776.03,-116.8 2776.03,-152.8"/>
<text text-anchor="middle" x="2736" y="-130.6" font-family="Times,serif" font-size="14.00">TablesPage</text>
</g>
<!-- TablesPage&#45;&gt;TablesPageModule -->
<g id="edge18" class="edge">
<title>TablesPage&#45;&gt;TablesPageModule</title>
<path fill="none" stroke="black" d="M2736,-152.91C2736,-172.14 2736,-199.8 2736,-199.8 2736,-199.8 2659.33,-199.8 2659.33,-199.8"/>
<polygon fill="black" stroke="black" points="2659.33,-196.3 2649.33,-199.8 2659.33,-203.3 2659.33,-196.3"/>
</g>
<!-- TablesPageRoutingModule -->
<g id="node28" class="node">
<title>TablesPageRoutingModule</title>
<polygon fill="#8dd3c7" stroke="black" points="2671.7,-152.8 2668.7,-156.8 2647.7,-156.8 2644.7,-152.8 2502.3,-152.8 2502.3,-116.8 2671.7,-116.8 2671.7,-152.8"/>
<text text-anchor="middle" x="2587" y="-130.6" font-family="Times,serif" font-size="14.00">TablesPageRoutingModule</text>
</g>
<!-- TablesPageRoutingModule&#45;&gt;TablesPageModule -->
<g id="edge20" class="edge">
<title>TablesPageRoutingModule&#45;&gt;TablesPageModule</title>
<path fill="none" stroke="black" d="M2587,-152.91C2587,-152.91 2587,-171.79 2587,-171.79"/>
<polygon fill="black" stroke="black" points="2583.5,-171.79 2587,-181.79 2590.5,-171.79 2583.5,-171.79"/>
</g>
<!-- TabsPage -->
<g id="node29" class="node">
<title>TabsPage</title>
<polygon fill="#ffffb3" stroke="black" points="3070.43,-84.8 2999.57,-84.8 2999.57,-48.8 3070.43,-48.8 3070.43,-84.8"/>
<text text-anchor="middle" x="3035" y="-62.6" font-family="Times,serif" font-size="14.00">TabsPage</text>
</g>
<!-- TabsPageModule -->
<g id="node30" class="node">
<title>TabsPageModule</title>
<polygon fill="#8dd3c7" stroke="black" points="3014.98,-152.8 3011.98,-156.8 2990.98,-156.8 2987.98,-152.8 2901.02,-152.8 2901.02,-116.8 3014.98,-116.8 3014.98,-152.8"/>
<text text-anchor="middle" x="2958" y="-130.6" font-family="Times,serif" font-size="14.00">TabsPageModule</text>
</g>
<!-- TabsPage&#45;&gt;TabsPageModule -->
<g id="edge21" class="edge">
<title>TabsPage&#45;&gt;TabsPageModule</title>
<path fill="none" stroke="black" d="M3007.39,-85.02C3007.39,-85.02 3007.39,-106.53 3007.39,-106.53"/>
<polygon fill="black" stroke="black" points="3003.89,-106.53 3007.39,-116.53 3010.89,-106.53 3003.89,-106.53"/>
</g>
<!-- TabsPageRoutingModule -->
<g id="node31" class="node">
<title>TabsPageRoutingModule</title>
<polygon fill="#8dd3c7" stroke="black" points="2975.6,-84.8 2972.6,-88.8 2951.6,-88.8 2948.6,-84.8 2816.4,-84.8 2816.4,-48.8 2975.6,-48.8 2975.6,-84.8"/>
<text text-anchor="middle" x="2896" y="-62.6" font-family="Times,serif" font-size="14.00">TabsPageRoutingModule</text>
</g>
<!-- TabsPageRoutingModule&#45;&gt;TabsPageModule -->
<g id="edge22" class="edge">
<title>TabsPageRoutingModule&#45;&gt;TabsPageModule</title>
<path fill="none" stroke="black" d="M2938.28,-85.02C2938.28,-85.02 2938.28,-106.53 2938.28,-106.53"/>
<polygon fill="black" stroke="black" points="2934.78,-106.53 2938.28,-116.53 2941.78,-106.53 2934.78,-106.53"/>
</g>
</g>
</svg>
