<?xml version="1.0" encoding="UTF-8" standalone="no"?>
<!DOCTYPE svg PUBLIC "-//W3C//DTD SVG 1.1//EN"
 "http://www.w3.org/Graphics/SVG/1.1/DTD/svg11.dtd">
<!-- Generated by graphviz version 5.0.0 (20220707.1540)
 -->
<!-- Title: dependencies Pages: 1 -->
<svg width="506pt" height="174pt"
 viewBox="0.00 0.00 506.00 173.80" xmlns="http://www.w3.org/2000/svg" xmlns:xlink="http://www.w3.org/1999/xlink">
<g id="graph0" class="graph" transform="scale(1 1) rotate(0) translate(4 169.8)">
<title>dependencies</title>
<polygon fill="white" stroke="transparent" points="-4,4 -4,-169.8 502,-169.8 502,4 -4,4"/>
<text text-anchor="middle" x="249" y="-8.2" font-family="sans-serif" font-size="14.00">dependencies</text>
<g id="clust1" class="cluster">
<title>cluster_TablesPageModule</title>
<polygon fill="none" stroke="black" stroke-dasharray="1,5" points="8,-32.8 8,-157.8 490,-157.8 490,-32.8 8,-32.8"/>
</g>
<g id="clust2" class="cluster">
<title>cluster_TablesPageModule_declarations</title>
<polygon fill="none" stroke="black" points="386,-40.8 386,-92.8 482,-92.8 482,-40.8 386,-40.8"/>
</g>
<g id="clust4" class="cluster">
<title>cluster_TablesPageModule_imports</title>
<polygon fill="none" stroke="black" points="16,-40.8 16,-92.8 378,-92.8 378,-40.8 16,-40.8"/>
</g>
<!-- TablesPage -->
<g id="node1" class="node">
<title>TablesPage</title>
<polygon fill="#ffffb3" stroke="black" points="474.03,-84.8 393.97,-84.8 393.97,-48.8 474.03,-48.8 474.03,-84.8"/>
<text text-anchor="middle" x="434" y="-62.6" font-family="Times,serif" font-size="14.00">TablesPage</text>
</g>
<!-- TablesPageModule -->
<g id="node2" class="node">
<title>TablesPageModule</title>
<polygon fill="#8dd3c7" stroke="black" points="353.08,-149.8 350.08,-153.8 329.08,-153.8 326.08,-149.8 228.92,-149.8 228.92,-113.8 353.08,-113.8 353.08,-149.8"/>
<text text-anchor="middle" x="291" y="-127.6" font-family="Times,serif" font-size="14.00">TablesPageModule</text>
</g>
<!-- TablesPage&#45;&gt;TablesPageModule -->
<g id="edge1" class="edge">
<title>TablesPage&#45;&gt;TablesPageModule</title>
<path fill="none" stroke="black" d="M434,-84.91C434,-104.14 434,-131.8 434,-131.8 434,-131.8 363.31,-131.8 363.31,-131.8"/>
<polygon fill="black" stroke="black" points="363.31,-128.3 353.31,-131.8 363.31,-135.3 363.31,-128.3"/>
</g>
<!-- TableDetailsPageModule -->
<g id="node3" class="node">
<title>TableDetailsPageModule</title>
<polygon fill="#8dd3c7" stroke="black" points="370.29,-84.8 367.29,-88.8 346.29,-88.8 343.29,-84.8 211.71,-84.8 211.71,-48.8 370.29,-48.8 370.29,-84.8"/>
<text text-anchor="middle" x="291" y="-62.6" font-family="Times,serif" font-size="14.00">TableDetailsPageModule</text>
</g>
<!-- TableDetailsPageModule&#45;&gt;TablesPageModule -->
<g id="edge2" class="edge">
<title>TableDetailsPageModule&#45;&gt;TablesPageModule</title>
<path fill="none" stroke="black" d="M291,-84.91C291,-84.91 291,-103.79 291,-103.79"/>
<polygon fill="black" stroke="black" points="287.5,-103.79 291,-113.79 294.5,-103.79 287.5,-103.79"/>
</g>
<!-- TablesPageRoutingModule -->
<g id="node4" class="node">
<title>TablesPageRoutingModule</title>
<polygon fill="#8dd3c7" stroke="black" points="193.7,-84.8 190.7,-88.8 169.7,-88.8 166.7,-84.8 24.3,-84.8 24.3,-48.8 193.7,-48.8 193.7,-84.8"/>
<text text-anchor="middle" x="109" y="-62.6" font-family="Times,serif" font-size="14.00">TablesPageRoutingModule</text>
</g>
<!-- TablesPageRoutingModule&#45;&gt;TablesPageModule -->
<g id="edge3" class="edge">
<title>TablesPageRoutingModule&#45;&gt;TablesPageModule</title>
<path fill="none" stroke="black" d="M109,-84.91C109,-104.14 109,-131.8 109,-131.8 109,-131.8 218.87,-131.8 218.87,-131.8"/>
<polygon fill="black" stroke="black" points="218.87,-135.3 228.87,-131.8 218.87,-128.3 218.87,-135.3"/>
</g>
</g>
</svg>
